RobotoSerifTextWide-Hairline 02h.ufo
<glyph name="one" format="2">
  <advance width="664"/>
  <unicode hex="0031"/>
  <outline>
    <contour>
      <point x="392" y="63" type="curve" smooth="yes"/>
      <point x="392" y="609" type="line"/>
      <point x="367" y="609" type="line"/>
      <point x="328" y="557"/>
      <point x="246" y="535"/>
      <point x="147" y="533" type="curve"/>
      <point x="147" y="499" type="line"/>
      <point x="239.00182261304641" y="496.99996037797723"/>
      <point x="334.4653138489001" y="525.7911107749728"/>
      <point x="358" y="575" type="curve"/>
      <point x="364" y="588"/>
      <point x="367" y="595"/>
      <point x="351" y="573" type="curve"/>
      <point x="351" y="63" type="line" smooth="yes"/>
      <point x="351" y="34"/>
      <point x="305" y="27"/>
      <point x="229" y="27" type="curve" smooth="yes"/>
      <point x="157" y="27" type="line"/>
      <point x="157" y="0" type="line"/>
      <point x="578" y="0" type="line"/>
      <point x="578" y="27" type="line"/>
      <point x="525" y="27" type="line" smooth="yes"/>
      <point x="443" y="27"/>
      <point x="392.0" y="34.0"/>
    </contour>
  </outline>
</glyph>
<glyph name="three" format="2">
  <advance width="664"/>
  <unicode hex="0033"/>
  <outline>
    <contour>
      <point x="335" y="-60" type="curve" smooth="yes"/>
      <point x="462.76146788990826" y="-60.0"/>
      <point x="546.0" y="3.0"/>
      <point x="546" y="109" type="curve" smooth="yes"/>
      <point x="546" y="206"/>
      <point x="470.97021276595746" y="269"/>
      <point x="314" y="269" type="curve" smooth="yes"/>
      <point x="227" y="269" type="line"/>
      <point x="227" y="299" type="line"/>
      <point x="300" y="299" type="line" smooth="yes"/>
      <point x="419.2877358490566" y="299"/>
      <point x="509.0" y="347.0"/>
      <point x="509" y="442" type="curve" smooth="yes"/>
      <point x="509.0" y="545.0"/>
      <point x="429.1270718232044" y="588.0"/>
      <point x="326" y="588" type="curve" smooth="yes"/>
      <point x="226" y="588"/>
      <point x="164" y="559"/>
      <point x="132" y="527" type="curve"/>
      <point x="136" y="551"/>
      <point x="153" y="571"/>
      <point x="153" y="573" type="curve"/>
      <point x="153" y="470" type="line"/>
      <point x="104" y="470" type="line"/>
      <point x="104" y="552" type="line"/>
      <point x="139" y="581"/>
      <point x="208" y="618"/>
      <point x="329" y="618" type="curve" smooth="yes"/>
      <point x="459" y="618"/>
      <point x="552" y="553"/>
      <point x="552" y="454" type="curve" smooth="yes"/>
      <point x="552.0" y="335.0"/>
      <point x="433.51260504201684" y="279.0"/>
      <point x="317" y="279" type="curve"/>
      <point x="335" y="289" type="line"/>
      <point x="520.7611940298507" y="289.0"/>
      <point x="589" y="210"/>
      <point x="589" y="109" type="curve" smooth="yes"/>
      <point x="589.0" y="-10.0"/>
      <point x="481.9501915708812" y="-90.0"/>
      <point x="335" y="-90" type="curve" smooth="yes"/>
      <point x="181.3917525773196" y="-90.0"/>
      <point x="81.19209323362642" y="-19.410380999111"/>
      <point x="37" y="75" type="curve"/>
      <point x="67" y="93" type="line"/>
      <point x="101.15375880623336" y="16.656303844890147"/>
      <point x="190.2183908045977" y="-60.0"/>
    </contour>
  </outline>
</glyph>
<glyph name="D" format="2">
  <advance width="828"/>
  <unicode hex="0044"/>
  <anchor x="415.8136" y="741.0" name="top"/>
  <anchor x="415.8136" y="0.0" name="bottom"/>
  <outline>
    <contour>
      <point x="52" y="680" type="line"/>
      <point x="66" y="680" type="line" smooth="yes"/>
      <point x="123" y="680"/>
      <point x="165" y="671"/>
      <point x="165" y="644" type="curve" smooth="yes"/>
      <point x="165" y="66" type="line" smooth="yes"/>
      <point x="165.0" y="37.0"/>
      <point x="123" y="30"/>
      <point x="66" y="30" type="curve" smooth="yes"/>
      <point x="52" y="30" type="line"/>
      <point x="52" y="0" type="line"/>
      <point x="340" y="0" type="line" smooth="yes"/>
      <point x="620.352534562212" y="0"/>
      <point x="773.0" y="141.00000000000003"/>
      <point x="773" y="357" type="curve" smooth="yes"/>
      <point x="773.0" y="574.0"/>
      <point x="618.3571428571429" y="710"/>
      <point x="340" y="710" type="curve" smooth="yes"/>
      <point x="52" y="710" type="line"/>
    </contour>
    <contour>
      <point x="340" y="680" type="line" smooth="yes"/>
      <point x="585.3708439897698" y="680"/>
      <point x="730.0" y="562.0"/>
      <point x="730" y="357" type="curve" smooth="yes"/>
      <point x="730.0" y="151.99999999999997"/>
      <point x="586.3682864450128" y="30"/>
      <point x="340" y="30" type="curve" smooth="yes"/>
      <point x="205" y="30" type="line"/>
      <point x="205" y="680" type="line"/>
    </contour>
  </outline>
</glyph>
<glyph name="F" format="2">
  <advance width="675"/>
  <unicode hex="0046"/>
  <outline>
    <contour>
      <point x="204" y="680" type="line"/>
      <point x="415" y="680" type="line" smooth="yes"/>
      <point x="515.0" y="680.0"/>
      <point x="557" y="673"/>
      <point x="561" y="637" type="curve" smooth="yes"/>
      <point x="571" y="546" type="line"/>
      <point x="598" y="546" type="line"/>
      <point x="598" y="710" type="line"/>
      <point x="52" y="710" type="line"/>
      <point x="52" y="680" type="line"/>
      <point x="65" y="680" type="line" smooth="yes"/>
      <point x="122" y="680"/>
      <point x="164" y="673"/>
      <point x="164" y="644" type="curve" smooth="yes"/>
      <point x="164" y="66" type="line" smooth="yes"/>
      <point x="164.0" y="37.0"/>
      <point x="122" y="30"/>
      <point x="65" y="30" type="curve" smooth="yes"/>
      <point x="52" y="30" type="line"/>
      <point x="52" y="0" type="line"/>
      <point x="335" y="0" type="line"/>
      <point x="335" y="30" type="line"/>
      <point x="315" y="30" type="line" smooth="yes"/>
      <point x="265" y="30"/>
      <point x="204.0" y="31.0"/>
      <point x="204" y="66" type="curve" smooth="yes"/>
    </contour>
    <contour>
      <point x="190" y="372" type="curve"/>
      <point x="190" y="343" type="line"/>
      <point x="295.6666063942372" y="341.9936513676739"/>
      <point x="401.33357435767834" y="341.0126938217585"/>
      <point x="507" y="339" type="curve"/>
      <point x="507" y="376" type="line"/>
      <point x="401.33357435767834" y="373.9873061782415"/>
      <point x="295.6666063942372" y="373.0063486323261"/>
    </contour>
  </outline>
</glyph>
<glyph name="G" format="2">
  <advance width="853"/>
  <unicode hex="0047"/>
  <anchor x="425.5248" y="741.0" name="top"/>
  <anchor x="425.5248" y="0.0" name="bottom"/>
  <outline>
    <contour>
      <point x="735" y="289" type="line" smooth="yes"/>
      <point x="735" y="318"/>
      <point x="772.0" y="323"/>
      <point x="822" y="323" type="curve" smooth="yes"/>
      <point x="827" y="323" type="line"/>
      <point x="827" y="353" type="line"/>
      <point x="589" y="353" type="line"/>
      <point x="589" y="323" type="line"/>
      <point x="602" y="323" type="line" smooth="yes"/>
      <point x="658.0" y="323"/>
      <point x="701" y="318"/>
      <point x="701" y="289" type="curve" smooth="yes"/>
      <point x="701" y="108" type="line"/>
      <point x="673" y="80"/>
      <point x="592" y="20"/>
      <point x="453" y="20" type="curve" smooth="yes"/>
      <point x="241" y="20"/>
      <point x="97.0" y="150.0"/>
      <point x="97" y="355" type="curve" smooth="yes"/>
      <point x="97.0" y="557.0"/>
      <point x="241.88343558282207" y="690.0"/>
      <point x="425" y="690" type="curve" smooth="yes"/>
      <point x="575.9295774647887" y="690.0"/>
      <point x="668.9358952306421" y="611.1771315995411"/>
      <point x="707" y="506" type="curve"/>
      <point x="737" y="506" type="line"/>
      <point x="737" y="710" type="line"/>
      <point x="711" y="710" type="line"/>
      <point x="697" y="548" type="line"/>
      <point x="714" y="567" type="line"/>
      <point x="667.935419448428" y="660.1305650281782"/>
      <point x="561.0584192439862" y="720.0"/>
      <point x="425" y="720" type="curve" smooth="yes"/>
      <point x="216.87804878048777" y="720.0"/>
      <point x="54.0" y="569.0"/>
      <point x="54" y="355" type="curve" smooth="yes"/>
      <point x="54.0" y="137.0"/>
      <point x="213.20822622107968" y="-10.0"/>
      <point x="451" y="-10" type="curve" smooth="yes"/>
      <point x="590.0821917808219" y="-10.0"/>
      <point x="698.4188560906832" y="48.50941956974991"/>
      <point x="735" y="93" type="curve"/>
    </contour>
  </outline>
</glyph>
<glyph name="M" format="2">
  <advance width="1032"/>
  <unicode hex="004D"/>
  <guideline x="854" y="685" angle="0" identifier="VGB62afaf6"/>
  <anchor x="506" y="0.0" name="bottom"/>
  <outline>
    <contour>
      <point x="52" y="0" type="line"/>
      <point x="301" y="0" type="line"/>
      <point x="301" y="30" type="line"/>
      <point x="296" y="30" type="line" smooth="yes"/>
      <point x="258" y="30"/>
      <point x="201" y="33"/>
      <point x="201" y="40" type="curve" smooth="yes"/>
      <point x="201" y="696" type="line"/>
      <point x="195" y="699" type="line"/>
      <point x="497" y="-2" type="line"/>
      <point x="531" y="-2" type="line"/>
      <point x="833" y="698" type="line"/>
      <point x="828" y="700" type="line"/>
      <point x="828" y="40" type="line" smooth="yes"/>
      <point x="828" y="33"/>
      <point x="781" y="30"/>
      <point x="738" y="30" type="curve" smooth="yes"/>
      <point x="728" y="30" type="line"/>
      <point x="728" y="0" type="line"/>
      <point x="980" y="0" type="line"/>
      <point x="980" y="30" type="line"/>
      <point x="967" y="30" type="line" smooth="yes"/>
      <point x="910" y="30"/>
      <point x="868" y="37"/>
      <point x="868" y="66" type="curve" smooth="yes"/>
      <point x="868" y="644" type="line" smooth="yes"/>
      <point x="868" y="673"/>
      <point x="910" y="680"/>
      <point x="967" y="680" type="curve" smooth="yes"/>
      <point x="980" y="680" type="line"/>
      <point x="980" y="710" type="line"/>
      <point x="798" y="710" type="line"/>
      <point x="510" y="42" type="line"/>
      <point x="522" y="42" type="line"/>
      <point x="236" y="710" type="line"/>
      <point x="52" y="710" type="line"/>
      <point x="52" y="680" type="line"/>
      <point x="65" y="680" type="line" smooth="yes"/>
      <point x="122" y="680"/>
      <point x="164" y="673"/>
      <point x="164" y="644" type="curve" smooth="yes"/>
      <point x="164" y="66" type="line" smooth="yes"/>
      <point x="164" y="37"/>
      <point x="122" y="30"/>
      <point x="65" y="30" type="curve"/>
      <point x="52" y="30" type="line"/>
    </contour>
  </outline>
</glyph>
<glyph name="Y" format="2">
  <advance width="761"/>
  <unicode hex="0059"/>
  <anchor x="380.0784" y="741.0" name="top"/>
  <anchor x="380.0784" y="0.0" name="bottom"/>
  <outline>
    <contour>
      <point x="362" y="303" type="line"/>
      <point x="362" y="66" type="line" smooth="yes"/>
      <point x="362" y="37"/>
      <point x="320" y="30"/>
      <point x="263" y="30" type="curve" smooth="yes"/>
      <point x="244" y="30" type="line"/>
      <point x="244" y="0" type="line"/>
      <point x="519" y="0" type="line"/>
      <point x="519" y="30" type="line"/>
      <point x="500" y="30" type="line" smooth="yes"/>
      <point x="444" y="30"/>
      <point x="402" y="37"/>
      <point x="402" y="66" type="curve" smooth="yes"/>
      <point x="402" y="303" type="line"/>
      <point x="395" y="285" type="line"/>
      <point x="639" y="639" type="line" smooth="yes"/>
      <point x="665" y="676"/>
      <point x="698" y="680"/>
      <point x="737" y="680" type="curve" smooth="yes"/>
      <point x="743" y="680" type="line"/>
      <point x="743" y="710" type="line"/>
      <point x="503" y="710" type="line"/>
      <point x="503" y="680" type="line"/>
      <point x="520" y="680" type="line" smooth="yes"/>
      <point x="564" y="680"/>
      <point x="616" y="673"/>
      <point x="616" y="662" type="curve"/>
      <point x="379" y="317" type="line"/>
      <point x="392" y="317" type="line"/>
      <point x="148" y="670" type="line"/>
      <point x="148" y="677"/>
      <point x="203" y="680"/>
      <point x="245" y="680" type="curve" smooth="yes"/>
      <point x="264" y="680" type="line"/>
      <point x="264" y="710" type="line"/>
      <point x="18" y="710" type="line"/>
      <point x="18" y="680" type="line"/>
      <point x="24" y="680" type="line" smooth="yes"/>
      <point x="63" y="680"/>
      <point x="94" y="680"/>
      <point x="112" y="654" type="curve" smooth="yes"/>
      <point x="367" y="287" type="line"/>
    </contour>
  </outline>
</glyph>
<glyph name="b" format="2">
  <advance width="675"/>
  <unicode hex="0062"/>
  <outline>
    <contour>
      <point x="118" y="665" type="curve" smooth="yes"/>
      <point x="118" y="-3" type="line"/>
      <point x="143" y="-3" type="line"/>
      <point x="158" y="134" type="line"/>
      <point x="158" y="134" type="line"/>
      <point x="158" y="735" type="line"/>
      <point x="20" y="735" type="line"/>
      <point x="20" y="710" type="line"/>
      <point x="33" y="708" type="line" smooth="yes"/>
      <point x="91" y="699"/>
      <point x="118.0" y="694.0"/>
    </contour>
    <contour>
      <point x="378" y="-10" type="curve" smooth="yes"/>
      <point x="526" y="-10.0"/>
      <point x="624.0" y="99.0"/>
      <point x="624" y="257" type="curve" smooth="yes"/>
      <point x="624.0" y="414.0"/>
      <point x="532" y="518.0"/>
      <point x="384" y="518" type="curve" smooth="yes"/>
      <point x="280" y="518.0"/>
      <point x="206" y="461"/>
      <point x="151" y="377" type="curve"/>
      <point x="151" y="328" type="line"/>
      <point x="211" y="429"/>
      <point x="288" y="488"/>
      <point x="377" y="488" type="curve" smooth="yes"/>
      <point x="505" y="488.0"/>
      <point x="581.0" y="399.0"/>
      <point x="581" y="257" type="curve" smooth="yes"/>
      <point x="581.0" y="115.0"/>
      <point x="504" y="20.0"/>
      <point x="375" y="20" type="curve" smooth="yes"/>
      <point x="276" y="20"/>
      <point x="200" y="78"/>
      <point x="152" y="176" type="curve"/>
      <point x="152" y="117" type="line"/>
      <point x="202" y="38"/>
      <point x="276" y="-10.0"/>
    </contour>
  </outline>
</glyph>
<glyph name="d" format="2">
  <advance width="691"/>
  <unicode hex="0064"/>
  <anchor x="648" y="735.0" name="right"/>
  <anchor x="315" y="0.0" name="bottom"/>
  <outline>
    <contour>
      <point x="520" y="0" type="line"/>
      <point x="657" y="0" type="line"/>
      <point x="657" y="27" type="line"/>
      <point x="656" y="27" type="line"/>
      <point x="600" y="27"/>
      <point x="560" y="34"/>
      <point x="560" y="63" type="curve" smooth="yes"/>
      <point x="560" y="735" type="line"/>
      <point x="422" y="735" type="line"/>
      <point x="422" y="710" type="line"/>
      <point x="435" y="708" type="line" smooth="yes"/>
      <point x="493" y="699"/>
      <point x="520" y="694"/>
      <point x="520" y="665" type="curve" smooth="yes"/>
      <point x="520" y="132" type="line"/>
      <point x="520" y="132" type="line"/>
    </contour>
    <contour>
      <point x="301" y="-10" type="curve" smooth="yes"/>
      <point x="401" y="-10.0"/>
      <point x="466" y="33"/>
      <point x="525" y="120" type="curve"/>
      <point x="525" y="172" type="line"/>
      <point x="467" y="71"/>
      <point x="396" y="20"/>
      <point x="305" y="20" type="curve" smooth="yes"/>
      <point x="180" y="20.0"/>
      <point x="97.0" y="108.0"/>
      <point x="97" y="250" type="curve" smooth="yes"/>
      <point x="97" y="392"/>
      <point x="188" y="488"/>
      <point x="312" y="488" type="curve" smooth="yes"/>
      <point x="411" y="488"/>
      <point x="485" y="429"/>
      <point x="525" y="335" type="curve"/>
      <point x="525" y="394" type="line"/>
      <point x="486" y="467"/>
      <point x="411.0" y="518.0"/>
      <point x="308" y="518" type="curve" smooth="yes"/>
      <point x="158" y="518"/>
      <point x="54" y="408"/>
      <point x="54" y="250" type="curve" smooth="yes"/>
      <point x="54.0" y="93.0"/>
      <point x="150" y="-10.0"/>
    </contour>
  </outline>
</glyph>
<glyph name="k" format="2">
  <advance width="672"/>
  <unicode hex="006B"/>
  <anchor x="335" y="0.0" name="bottom"/>
  <outline>
    <contour>
      <point x="647" y="0" type="line"/>
      <point x="647" y="28" type="line"/>
      <point x="644" y="28" type="line"/>
      <point x="596.8495575221239" y="28.0"/>
      <point x="570.9195877495395" y="34.68216953164246"/>
      <point x="533" y="67" type="curve" smooth="yes"/>
      <point x="269" y="292" type="line"/>
      <point x="269" y="273" type="line"/>
      <point x="492" y="439" type="line" smooth="yes"/>
      <point x="529.0165470972393" y="466.55491846700323"/>
      <point x="558.4224137931035" y="480.0"/>
      <point x="607" y="480" type="curve"/>
      <point x="610" y="480" type="line"/>
      <point x="610" y="508" type="line"/>
      <point x="367" y="508" type="line"/>
      <point x="367" y="480" type="line"/>
      <point x="372" y="480" type="line"/>
      <point x="415.24" y="480.0"/>
      <point x="466.0" y="477.0"/>
      <point x="466" y="463" type="curve"/>
      <point x="227" y="281" type="line"/>
      <point x="227" y="276" type="line"/>
      <point x="508" y="39" type="line"/>
      <point x="508.0" y="31.3"/>
      <point x="459.0" y="28.0"/>
      <point x="424" y="28" type="curve"/>
      <point x="417" y="28" type="line"/>
      <point x="417" y="0" type="line"/>
    </contour>
    <contour>
      <point x="179" y="735" type="line"/>
      <point x="42" y="735" type="line"/>
      <point x="42" y="710" type="line"/>
      <point x="55" y="708" type="line" smooth="yes"/>
      <point x="112" y="699"/>
      <point x="139.0" y="694.0"/>
      <point x="139" y="664" type="curve" smooth="yes"/>
      <point x="139" y="63" type="line" smooth="yes"/>
      <point x="139" y="34"/>
      <point x="100" y="27"/>
      <point x="44" y="27" type="curve" smooth="yes"/>
      <point x="42" y="27" type="line"/>
      <point x="42" y="0" type="line"/>
      <point x="267" y="0" type="line"/>
      <point x="267" y="27" type="line"/>
      <point x="263" y="27" type="line" smooth="yes"/>
      <point x="232" y="27"/>
      <point x="179.0" y="30.0"/>
      <point x="179.0" y="38" type="curve" smooth="yes"/>
    </contour>
  </outline>
</glyph>
<glyph name="m" format="2">
  <advance width="1000"/>
  <unicode hex="006D"/>
  <outline>
    <contour>
      <point x="40" y="0" type="line"/>
      <point x="266" y="0" type="line"/>
      <point x="266" y="27" type="line"/>
      <point x="262" y="27" type="line" smooth="yes"/>
      <point x="229" y="27"/>
      <point x="178.0" y="30.0"/>
      <point x="178" y="37" type="curve" smooth="yes"/>
      <point x="178" y="398" type="line"/>
      <point x="178" y="398" type="line"/>
      <point x="178" y="508" type="line"/>
      <point x="40" y="508" type="line"/>
      <point x="40" y="483" type="line"/>
      <point x="53" y="481" type="line" smooth="yes"/>
      <point x="111" y="472"/>
      <point x="138.0" y="467.0"/>
      <point x="138" y="437" type="curve" smooth="yes"/>
      <point x="138" y="63" type="line" smooth="yes"/>
      <point x="138" y="34"/>
      <point x="98" y="27"/>
      <point x="43" y="27" type="curve" smooth="yes"/>
      <point x="40" y="27" type="line"/>
    </contour>
    <contour>
      <point x="621" y="0" type="line"/>
      <point x="621" y="27" type="line"/>
      <point x="619" y="27" type="line" smooth="yes"/>
      <point x="563" y="27"/>
      <point x="524" y="34"/>
      <point x="524" y="63" type="curve" smooth="yes"/>
      <point x="524" y="361" type="line" smooth="yes"/>
      <point x="524" y="469"/>
      <point x="466" y="518"/>
      <point x="368" y="518" type="curve" smooth="yes"/>
      <point x="286.0" y="518.0"/>
      <point x="224" y="482"/>
      <point x="168" y="411" type="curve"/>
      <point x="168" y="365" type="line"/>
      <point x="220" y="437"/>
      <point x="280.0" y="484.0"/>
      <point x="361" y="484" type="curve" smooth="yes"/>
      <point x="452" y="484"/>
      <point x="484" y="442"/>
      <point x="484" y="350" type="curve" smooth="yes"/>
      <point x="484" y="37" type="line" smooth="yes"/>
      <point x="484" y="30"/>
      <point x="431" y="27"/>
      <point x="398" y="27" type="curve" smooth="yes"/>
      <point x="396" y="27" type="line"/>
      <point x="396" y="0" type="line"/>
    </contour>
    <contour>
      <point x="967" y="0" type="line"/>
      <point x="967" y="27" type="line"/>
      <point x="965" y="27" type="line" smooth="yes"/>
      <point x="909" y="27"/>
      <point x="870" y="34"/>
      <point x="870" y="63" type="curve" smooth="yes"/>
      <point x="870" y="361" type="line" smooth="yes"/>
      <point x="870" y="469"/>
      <point x="812" y="518"/>
      <point x="714" y="518" type="curve" smooth="yes"/>
      <point x="632.0" y="518.0"/>
      <point x="570" y="482"/>
      <point x="514" y="411" type="curve"/>
      <point x="514" y="365" type="line"/>
      <point x="566" y="437"/>
      <point x="626.0" y="484.0"/>
      <point x="707" y="484" type="curve" smooth="yes"/>
      <point x="798" y="484"/>
      <point x="830" y="442"/>
      <point x="830" y="350" type="curve" smooth="yes"/>
      <point x="830" y="37" type="line" smooth="yes"/>
      <point x="830" y="30"/>
      <point x="777" y="27"/>
      <point x="744" y="27" type="curve" smooth="yes"/>
      <point x="742" y="27" type="line"/>
      <point x="742" y="0" type="line"/>
    </contour>
  </outline>
</glyph>
<glyph name="p" format="2">
  <advance width="695"/>
  <unicode hex="0070"/>
  <outline>
    <contour>
      <point x="41" y="-223" type="line"/>
      <point x="297" y="-223" type="line"/>
      <point x="297" y="-196" type="line"/>
      <point x="263" y="-196" type="line" smooth="yes"/>
      <point x="233" y="-196"/>
      <point x="179.0" y="-193.0"/>
      <point x="179" y="-186" type="curve" smooth="yes"/>
      <point x="179" y="370" type="line"/>
      <point x="179" y="371" type="line"/>
      <point x="179" y="508" type="line"/>
      <point x="41" y="508" type="line"/>
      <point x="41" y="483" type="line"/>
      <point x="54" y="481" type="line" smooth="yes"/>
      <point x="111" y="472"/>
      <point x="139.0" y="467.0"/>
      <point x="139" y="438" type="curve" smooth="yes"/>
      <point x="139" y="-160" type="line" smooth="yes"/>
      <point x="139" y="-189"/>
      <point x="99" y="-196"/>
      <point x="43" y="-196" type="curve"/>
      <point x="41" y="-196" type="line"/>
    </contour>
    <contour>
      <point x="399" y="-10" type="curve" smooth="yes"/>
      <point x="547" y="-10.0"/>
      <point x="645.0" y="99.0"/>
      <point x="645" y="257" type="curve" smooth="yes"/>
      <point x="645.0" y="414.0"/>
      <point x="553" y="518.0"/>
      <point x="405" y="518" type="curve" smooth="yes"/>
      <point x="301" y="518.0"/>
      <point x="227" y="461"/>
      <point x="172" y="377" type="curve"/>
      <point x="172" y="328" type="line"/>
      <point x="232" y="429"/>
      <point x="309" y="488"/>
      <point x="398" y="488" type="curve" smooth="yes"/>
      <point x="526" y="488.0"/>
      <point x="602.0" y="399.0"/>
      <point x="602" y="257" type="curve" smooth="yes"/>
      <point x="602.0" y="115.0"/>
      <point x="525" y="20.0"/>
      <point x="396" y="20" type="curve" smooth="yes"/>
      <point x="297" y="20"/>
      <point x="221" y="78"/>
      <point x="173" y="176" type="curve"/>
      <point x="173" y="117" type="line"/>
      <point x="223" y="38"/>
      <point x="297" y="-10.0"/>
    </contour>
  </outline>
</glyph>
<glyph name="w" format="2">
  <advance width="916"/>
  <unicode hex="0077"/>
  <anchor x="457.3732" y="551.0" name="top"/>
  <outline>
    <contour>
      <point x="460" y="473" type="line"/>
      <point x="303" y="0" type="line"/>
      <point x="247" y="0" type="line"/>
      <point x="91" y="448" type="line" smooth="yes"/>
      <point x="82" y="473"/>
      <point x="49" y="479"/>
      <point x="13" y="479" type="curve"/>
      <point x="12" y="479" type="line"/>
      <point x="12" y="508" type="line"/>
      <point x="230" y="508" type="line"/>
      <point x="230" y="479" type="line"/>
      <point x="227" y="479" type="line" smooth="yes"/>
      <point x="174" y="479"/>
      <point x="125" y="477"/>
      <point x="125" y="470" type="curve"/>
      <point x="281" y="22" type="line"/>
      <point x="272" y="17" type="line"/>
      <point x="435" y="508" type="line"/>
      <point x="478" y="508" type="line"/>
      <point x="645" y="18" type="line"/>
      <point x="633" y="14" type="line"/>
      <point x="789" y="460" type="line"/>
      <point x="789.0" y="471.0"/>
      <point x="747" y="479"/>
      <point x="695" y="479.0" type="curve" smooth="yes"/>
      <point x="686" y="479" type="line"/>
      <point x="686" y="508" type="line"/>
      <point x="904" y="508" type="line"/>
      <point x="904" y="479" type="line" smooth="yes"/>
      <point x="896" y="479.0" type="line" smooth="yes"/>
      <point x="860" y="479.0"/>
      <point x="828.7998570604481" y="466.97853735760117"/>
      <point x="818" y="436" type="curve" smooth="yes"/>
      <point x="666" y="0" type="line"/>
      <point x="610" y="0" type="line"/>
      <point x="442" y="488" type="line"/>
    </contour>
  </outline>
</glyph>
<glyph name="z" format="2">
  <advance width="521"/>
  <unicode hex="007A"/>
  <anchor x="264.558" y="551.0" name="top"/>
  <anchor x="285.1524" y="0.0" name="bottom"/>
  <outline>
    <contour>
      <point x="74" y="13" type="line"/>
      <point x="473" y="478" type="line"/>
      <point x="473" y="508" type="line"/>
      <point x="67" y="508" type="line"/>
      <point x="67" y="362" type="line"/>
      <point x="95" y="362" type="line"/>
      <point x="105" y="435" type="line" smooth="yes"/>
      <point x="109.9340734019178" y="471.0187358339999"/>
      <point x="140.0" y="478"/>
      <point x="252" y="478" type="curve" smooth="yes"/>
      <point x="455" y="478" type="line"/>
      <point x="439" y="494" type="line"/>
      <point x="44" y="34" type="line"/>
      <point x="44" y="0" type="line"/>
      <point x="488" y="0" type="line"/>
      <point x="488" y="159" type="line"/>
      <point x="460" y="159" type="line"/>
      <point x="448" y="76" type="line" smooth="yes"/>
      <point x="442.3529098225558" y="36.94095960601085"/>
      <point x="413.0" y="30.0"/>
      <point x="302" y="30" type="curve" smooth="yes"/>
      <point x="54" y="30" type="line"/>
    </contour>
  </outline>
</glyph>
<glyph name="oe" format="2">
  <advance width="1080"/>
  <unicode hex="0153"/>
  <outline>
    <contour>
      <point x="810" y="-10" type="curve" smooth="yes"/>
      <point x="917" y="-10"/>
      <point x="984" y="34"/>
      <point x="1028" y="102" type="curve"/>
      <point x="1003" y="126" type="line"/>
      <point x="969" y="73"/>
      <point x="913" y="21"/>
      <point x="810" y="21" type="curve" smooth="yes"/>
      <point x="686" y="21"/>
      <point x="589" y="105"/>
      <point x="589" y="250" type="curve" smooth="yes"/>
      <point x="589" y="396"/>
      <point x="678" y="487"/>
      <point x="798" y="487" type="curve" smooth="yes"/>
      <point x="923" y="487"/>
      <point x="980" y="413"/>
      <point x="986" y="265" type="curve"/>
      <point x="1003" y="275" type="line"/>
      <point x="556" y="275" type="line"/>
      <point x="557" y="243" type="line"/>
      <point x="1029" y="243" type="line"/>
      <point x="1027" y="423"/>
      <point x="951" y="518"/>
      <point x="798" y="518" type="curve" smooth="yes"/>
      <point x="661" y="518"/>
      <point x="558" y="413"/>
      <point x="558" y="252" type="curve" smooth="yes"/>
      <point x="558" y="88"/>
      <point x="670" y="-10"/>
    </contour>
    <contour>
      <point x="320" y="-10" type="curve"/>
      <point x="469" y="-10"/>
      <point x="578" y="93"/>
      <point x="578" y="254" type="curve" smooth="yes"/>
      <point x="578" y="413"/>
      <point x="469" y="518"/>
      <point x="320" y="518" type="curve" smooth="yes"/>
      <point x="164" y="518"/>
      <point x="51" y="410"/>
      <point x="51" y="254" type="curve" smooth="yes"/>
      <point x="51" y="97"/>
      <point x="164" y="-10"/>
    </contour>
    <contour>
      <point x="320" y="21" type="curve"/>
      <point x="181" y="21"/>
      <point x="95" y="113"/>
      <point x="95" y="254" type="curve" smooth="yes"/>
      <point x="95" y="392"/>
      <point x="181" y="487"/>
      <point x="320" y="487" type="curve" smooth="yes"/>
      <point x="459" y="487"/>
      <point x="545" y="392"/>
      <point x="545" y="254" type="curve" smooth="yes"/>
      <point x="545" y="112"/>
      <point x="459" y="21"/>
    </contour>
  </outline>
</glyph>
<glyph name="circumflex" format="2">
  <advance width="581"/>
  <unicode hex="02C6"/>
  <anchor x="286.7256" y="529.0" name="_top"/>
  <outline>
    <contour>
      <point x="325" y="739" type="line"/>
      <point x="442" y="606" type="line"/>
      <point x="442" y="596" type="line"/>
      <point x="416" y="596" type="line"/>
      <point x="261" y="724" type="line"/>
      <point x="311" y="724" type="line"/>
      <point x="159" y="596" type="line"/>
      <point x="140" y="596" type="line"/>
      <point x="140" y="606" type="line"/>
      <point x="254" y="739" type="line"/>
    </contour>
  </outline>
</glyph>
<glyph name="ogonek" format="2">
  <advance width="697"/>
  <unicode hex="02DB"/>
  <anchor x="428.6648" y="28.08" name="_right"/>
  <outline>
    <contour>
      <point x="447" y="22" type="line"/>
      <point x="379" y="-22"/>
      <point x="304" y="-69"/>
      <point x="304" y="-140" type="curve" smooth="yes"/>
      <point x="304" y="-198"/>
      <point x="354" y="-233"/>
      <point x="413" y="-233" type="curve" smooth="yes"/>
      <point x="462" y="-233"/>
      <point x="501" y="-211"/>
      <point x="532" y="-180" type="curve"/>
      <point x="512" y="-160" type="line"/>
      <point x="485" y="-182"/>
      <point x="459" y="-202"/>
      <point x="418" y="-202" type="curve" smooth="yes"/>
      <point x="379" y="-202"/>
      <point x="345" y="-180"/>
      <point x="345" y="-140" type="curve" smooth="yes"/>
      <point x="345" y="-84"/>
      <point x="388" y="-50"/>
      <point x="467" y="1" type="curve"/>
    </contour>
  </outline>
</glyph>
<glyph name="mu" format="2">
  <advance width="641"/>
  <unicode hex="03BC"/>
  <outline>
    <contour>
      <point x="550" y="-10" type="curve" smooth="yes"/>
      <point x="608" y="-10"/>
      <point x="637" y="26"/>
      <point x="654" y="64" type="curve"/>
      <point x="631" y="81" type="line"/>
      <point x="615" y="51"/>
      <point x="593" y="21"/>
      <point x="552" y="21" type="curve" smooth="yes"/>
      <point x="524" y="21"/>
      <point x="504" y="32"/>
      <point x="504" y="68" type="curve" smooth="yes"/>
      <point x="504" y="508" type="line"/>
      <point x="463" y="508" type="line"/>
      <point x="463" y="108" type="line"/>
      <point x="462" y="71" type="line" smooth="yes"/>
      <point x="462" y="19"/>
      <point x="490" y="-10"/>
    </contour>
    <contour>
      <point x="99" y="103" type="curve"/>
      <point x="117" y="18"/>
      <point x="175" y="-10"/>
      <point x="252" y="-10" type="curve" smooth="yes"/>
      <point x="355" y="-10"/>
      <point x="426" y="40"/>
      <point x="498" y="143" type="curve"/>
      <point x="489" y="174" type="line"/>
      <point x="425" y="81"/>
      <point x="356" y="24"/>
      <point x="260" y="24" type="curve" smooth="yes"/>
      <point x="160" y="24"/>
      <point x="126" y="67"/>
      <point x="126" y="163" type="curve" smooth="yes"/>
      <point x="126" y="508" type="line"/>
      <point x="85" y="508" type="line"/>
      <point x="85" y="-250" type="line"/>
      <point x="131" y="-250" type="line"/>
      <point x="131" y="-116"/>
      <point x="114" y="-36"/>
      <point x="105" y="146" type="curve"/>
      <point x="99" y="157"/>
      <point x="95" y="143"/>
    </contour>
  </outline>
</glyph>
<glyph name="dagger" format="2">
  <advance width="460"/>
  <unicode hex="2020"/>
  <outline>
    <contour>
      <point x="227" y="505" type="line"/>
      <point x="233" y="505" type="line"/>
      <point x="403" y="490" type="line"/>
      <point x="438" y="490" type="line"/>
      <point x="438" y="536" type="line"/>
      <point x="403" y="536" type="line"/>
      <point x="233" y="525" type="line"/>
      <point x="227" y="525" type="line"/>
      <point x="57" y="536" type="line"/>
      <point x="22" y="536" type="line"/>
      <point x="22" y="490" type="line"/>
      <point x="57" y="490" type="line"/>
    </contour>
    <contour>
      <point x="250" y="710" type="line"/>
      <point x="210" y="710" type="line"/>
      <point x="210" y="675" type="line" smooth="yes"/>
      <point x="210" y="640"/>
      <point x="216" y="586"/>
      <point x="216" y="509" type="curve" smooth="yes"/>
      <point x="216" y="440"/>
      <point x="212" y="403"/>
      <point x="204" y="377" type="curve"/>
      <point x="204" y="357" type="line" smooth="yes"/>
      <point x="204" y="316"/>
      <point x="211" y="219"/>
      <point x="219" y="0" type="curve"/>
      <point x="241" y="0" type="line"/>
      <point x="249" y="219"/>
      <point x="256" y="316"/>
      <point x="256" y="357" type="curve" smooth="yes"/>
      <point x="256" y="377" type="line"/>
      <point x="248" y="403"/>
      <point x="244" y="440"/>
      <point x="244" y="509" type="curve" smooth="yes"/>
      <point x="244" y="586"/>
      <point x="250" y="640"/>
      <point x="250" y="675" type="curve" smooth="yes"/>
    </contour>
  </outline>
</glyph>
<glyph name="naira" format="2">
  <advance width="650"/>
  <unicode hex="20A6"/>
  <outline>
    <contour>
      <point x="118" y="702" type="line"/>
      <point x="509" y="0" type="line"/>
      <point x="554" y="0" type="line"/>
      <point x="554" y="638" type="line" smooth="yes"/>
      <point x="554" y="667"/>
      <point x="583" y="679"/>
      <point x="624" y="679" type="curve" smooth="yes"/>
      <point x="638" y="679" type="line"/>
      <point x="638" y="710" type="line"/>
      <point x="414" y="710" type="line"/>
      <point x="414" y="679" type="line"/>
      <point x="430" y="679" type="line"/>
      <point x="466" y="679"/>
      <point x="521" y="671"/>
      <point x="521" y="664" type="curve" smooth="yes"/>
      <point x="521" y="27" type="line"/>
      <point x="520" y="42" type="line"/>
      <point x="156" y="710" type="line"/>
      <point x="12" y="710" type="line"/>
      <point x="12" y="679" type="line"/>
      <point x="25" y="679" type="line" smooth="yes"/>
      <point x="66" y="679"/>
      <point x="95" y="672"/>
      <point x="95" y="643" type="curve" smooth="yes"/>
      <point x="95" y="72" type="line" smooth="yes"/>
      <point x="95" y="43"/>
      <point x="66" y="31"/>
      <point x="25" y="31" type="curve" smooth="yes"/>
      <point x="12" y="31" type="line"/>
      <point x="12" y="0" type="line"/>
      <point x="236" y="0" type="line"/>
      <point x="236" y="31" type="line"/>
      <point x="220" y="31" type="line" smooth="yes"/>
      <point x="184" y="31"/>
      <point x="130" y="39"/>
      <point x="130" y="46" type="curve" smooth="yes"/>
      <point x="130" y="706" type="line"/>
    </contour>
    <contour>
      <point x="120" y="441" type="line"/>
      <point x="6" y="441" type="line"/>
      <point x="6" y="410" type="line"/>
      <point x="113" y="410" type="line"/>
    </contour>
    <contour>
      <point x="298" y="410" type="line"/>
      <point x="525" y="410" type="line"/>
      <point x="532" y="410" type="line"/>
      <point x="644" y="410" type="line"/>
      <point x="644" y="441" type="line"/>
      <point x="288" y="441" type="line"/>
    </contour>
    <contour>
      <point x="544" y="251" type="line"/>
      <point x="644" y="251" type="line"/>
      <point x="644" y="282" type="line"/>
      <point x="544" y="282" type="line"/>
    </contour>
    <contour>
      <point x="380" y="282" type="line"/>
      <point x="123" y="282" type="line"/>
      <point x="113" y="282" type="line"/>
      <point x="6" y="282" type="line"/>
      <point x="6" y="251" type="line"/>
      <point x="392" y="251" type="line"/>
    </contour>
  </outline>
</glyph>
<glyph name="won" format="2">
  <advance width="650"/>
  <unicode hex="20A9"/>
  <outline>
    <contour>
      <point x="-18" y="710" type="line"/>
      <point x="-18" y="679" type="line"/>
      <point x="-12" y="679" type="line" smooth="yes"/>
      <point x="22" y="679"/>
      <point x="46" y="676"/>
      <point x="52" y="642" type="curve" smooth="yes"/>
      <point x="158" y="0" type="line"/>
      <point x="203" y="0" type="line"/>
      <point x="330" y="685" type="line"/>
      <point x="321" y="689" type="line"/>
      <point x="460" y="0" type="line"/>
      <point x="511" y="0" type="line"/>
      <point x="598" y="636" type="line" smooth="yes"/>
      <point x="604" y="670"/>
      <point x="629" y="679"/>
      <point x="661" y="679" type="curve" smooth="yes"/>
      <point x="667" y="679" type="line"/>
      <point x="667" y="710" type="line"/>
      <point x="477" y="710" type="line"/>
      <point x="477" y="679" type="line"/>
      <point x="496" y="679" type="line" smooth="yes"/>
      <point x="530" y="679"/>
      <point x="571" y="672"/>
      <point x="571" y="661" type="curve"/>
      <point x="482" y="15" type="line"/>
      <point x="491" y="13" type="line"/>
      <point x="348" y="710" type="line"/>
      <point x="305" y="710" type="line"/>
      <point x="178" y="19" type="line"/>
      <point x="187" y="19" type="line"/>
      <point x="81" y="669" type="line"/>
      <point x="81" y="676"/>
      <point x="125" y="679"/>
      <point x="160" y="679" type="curve" smooth="yes"/>
      <point x="181" y="679" type="line"/>
      <point x="181" y="710" type="line"/>
    </contour>
    <contour>
      <point x="-18" y="439" type="line"/>
      <point x="-18" y="408" type="line"/>
      <point x="99" y="408" type="line"/>
      <point x="107" y="408" type="line"/>
      <point x="266" y="408" type="line"/>
      <point x="278" y="439" type="line"/>
    </contour>
    <contour>
      <point x="393" y="408" type="line"/>
      <point x="544" y="408" type="line"/>
      <point x="564" y="408" type="line"/>
      <point x="667" y="408" type="line"/>
      <point x="667" y="439" type="line"/>
      <point x="387" y="439" type="line"/>
    </contour>
    <contour>
      <point x="229" y="252" type="line"/>
      <point x="429" y="252" type="line"/>
      <point x="413" y="283" type="line"/>
      <point x="241" y="283" type="line"/>
    </contour>
    <contour>
      <point x="122" y="283" type="line"/>
      <point x="-18" y="283" type="line"/>
      <point x="-18" y="252" type="line"/>
      <point x="128" y="252" type="line"/>
    </contour>
    <contour>
      <point x="539" y="252" type="line"/>
      <point x="667" y="252" type="line"/>
      <point x="667" y="283" type="line"/>
      <point x="537" y="283" type="line"/>
    </contour>
  </outline>
</glyph>
<glyph name="dong" format="2">
  <advance width="650"/>
  <unicode hex="20AB"/>
  <outline>
    <contour>
      <point x="91" y="250" type="curve" smooth="yes"/>
      <point x="91" y="391"/>
      <point x="165" y="487"/>
      <point x="297" y="487" type="curve" smooth="yes"/>
      <point x="397" y="487"/>
      <point x="467" y="424"/>
      <point x="505" y="324" type="curve"/>
      <point x="526" y="345" type="line"/>
      <point x="477" y="457"/>
      <point x="412" y="518"/>
      <point x="294" y="518" type="curve" smooth="yes"/>
      <point x="147" y="518"/>
      <point x="47" y="408"/>
      <point x="47" y="250" type="curve" smooth="yes"/>
      <point x="47" y="93"/>
      <point x="136" y="-11"/>
      <point x="278" y="-11" type="curve" smooth="yes"/>
      <point x="405" y="-11"/>
      <point x="475" y="62"/>
      <point x="536" y="169" type="curve"/>
      <point x="520" y="196" type="line"/>
      <point x="466" y="95"/>
      <point x="393" y="20"/>
      <point x="285" y="20" type="curve" smooth="yes"/>
      <point x="158" y="20"/>
      <point x="91" y="109"/>
    </contour>
    <contour>
      <point x="498" y="735" type="line"/>
      <point x="498" y="136" type="line"/>
      <point x="498" y="131" type="line"/>
      <point x="498" y="0" type="line"/>
      <point x="637" y="0" type="line"/>
      <point x="637" y="28" type="line"/>
      <point x="636" y="28" type="line"/>
      <point x="580" y="28"/>
      <point x="539" y="35"/>
      <point x="539" y="64" type="curve" smooth="yes"/>
      <point x="539" y="735" type="line"/>
    </contour>
    <contour>
      <point x="110" y="-126" type="line"/>
      <point x="110" y="-157" type="line"/>
      <point x="566" y="-157" type="line"/>
      <point x="566" y="-126" type="line"/>
    </contour>
    <contour>
      <point x="272" y="629" type="line"/>
      <point x="272" y="598" type="line"/>
      <point x="635" y="598" type="line"/>
      <point x="635" y="629" type="line"/>
    </contour>
  </outline>
</glyph>
<glyph name="uni25B4" format="2">
  <advance width="968"/>
  <unicode hex="25B4"/>
  <outline>
    <contour>
      <point x="23" y="0" type="line"/>
      <point x="945" y="0" type="line"/>
      <point x="484" y="715" type="line"/>
    </contour>
  </outline>
</glyph>
<glyph name="uni25C3" format="2">
  <advance width="888"/>
  <unicode hex="25C3"/>
  <outline>
    <contour>
      <point x="819" y="-40" type="line"/>
      <point x="819" y="754" type="line"/>
      <point x="23" y="357" type="line"/>
    </contour>
    <contour>
      <point x="746" y="54" type="line"/>
      <point x="767" y="62" type="line"/>
      <point x="166" y="363" type="line"/>
      <point x="166" y="351" type="line"/>
      <point x="767" y="652" type="line"/>
      <point x="746" y="660" type="line"/>
    </contour>
  </outline>
</glyph>
<glyph name="baht" format="2">
  <advance width="652"/>
  <outline>
    <contour>
      <point x="312" y="790" type="line"/>
      <point x="312" y="698" type="line"/>
      <point x="311" y="690" type="line"/>
      <point x="311" y="22" type="line"/>
      <point x="312" y="12" type="line"/>
      <point x="312" y="-120" type="line"/>
      <point x="348" y="-120" type="line"/>
      <point x="348" y="12" type="line"/>
      <point x="349" y="22" type="line"/>
      <point x="349" y="690" type="line"/>
      <point x="348" y="698" type="line"/>
      <point x="348" y="790" type="line"/>
    </contour>
    <contour>
      <point x="350" y="710" type="curve"/>
      <point x="32" y="710" type="line"/>
      <point x="32" y="679" type="line"/>
      <point x="45" y="679" type="line" smooth="yes"/>
      <point x="92" y="679"/>
      <point x="127" y="672"/>
      <point x="127" y="643" type="curve" smooth="yes"/>
      <point x="127" y="67" type="line" smooth="yes"/>
      <point x="127" y="38"/>
      <point x="92" y="31"/>
      <point x="45" y="31" type="curve" smooth="yes"/>
      <point x="32" y="31" type="line"/>
      <point x="32" y="0" type="line"/>
      <point x="356" y="0" type="line" smooth="yes"/>
      <point x="509" y="0"/>
      <point x="594" y="74"/>
      <point x="594" y="192" type="curve" smooth="yes"/>
      <point x="594" y="309"/>
      <point x="498" y="384"/>
      <point x="288" y="384" type="curve"/>
      <point x="282" y="363" type="line"/>
      <point x="481" y="363"/>
      <point x="564" y="435"/>
      <point x="564" y="541" type="curve" smooth="yes"/>
      <point x="564" y="645"/>
      <point x="490" y="710"/>
    </contour>
    <contour>
      <point x="322" y="387" type="curve"/>
      <point x="168" y="387" type="line"/>
      <point x="168" y="678" type="line"/>
      <point x="350" y="678" type="line"/>
      <point x="467" y="678"/>
      <point x="519" y="629"/>
      <point x="519" y="540" type="curve" smooth="yes"/>
      <point x="519" y="450"/>
      <point x="461" y="387"/>
    </contour>
    <contour>
      <point x="326" y="357" type="line"/>
      <point x="476" y="357"/>
      <point x="547" y="290"/>
      <point x="547" y="193" type="curve" smooth="yes"/>
      <point x="547" y="89"/>
      <point x="485" y="32"/>
      <point x="356" y="32" type="curve" smooth="yes"/>
      <point x="168" y="32" type="line"/>
      <point x="168" y="357" type="line"/>
    </contour>
  </outline>
</glyph>
<glyph name="blackdiamond" format="2">
  <advance width="722"/>
  <outline>
    <contour>
      <point x="664" y="313" type="line"/>
      <point x="361" y="574" type="line"/>
      <point x="58" y="313" type="line"/>
      <point x="361" y="52" type="line"/>
    </contour>
  </outline>
</glyph>
<glyph name="blacktriangle" format="2">
  <advance width="665"/>
  <outline>
    <contour>
      <point x="151" y="40" type="line"/>
      <point x="584" y="307" type="line"/>
      <point x="151" y="575" type="line"/>
    </contour>
  </outline>
</glyph>
<glyph name="five.lin" format="2">
  <advance width="650"/>
  <outline>
    <contour>
      <point x="328" y="-10" type="curve" smooth="yes"/>
      <point x="189" y="-10"/>
      <point x="114" y="47"/>
      <point x="69" y="131" type="curve"/>
      <point x="92" y="156" type="line"/>
      <point x="134" y="80"/>
      <point x="200" y="21"/>
      <point x="328" y="21" type="curve" smooth="yes"/>
      <point x="476" y="21"/>
      <point x="560" y="110"/>
      <point x="560" y="241" type="curve" smooth="yes"/>
      <point x="560" y="364"/>
      <point x="466" y="439"/>
      <point x="353" y="439" type="curve" smooth="yes"/>
      <point x="256" y="439"/>
      <point x="191" y="406"/>
      <point x="136" y="345" type="curve"/>
      <point x="110" y="345" type="line"/>
      <point x="110" y="710" type="line"/>
      <point x="553" y="710" type="line"/>
      <point x="542" y="671" type="line"/>
      <point x="126" y="671" type="line"/>
      <point x="143" y="690" type="line"/>
      <point x="143" y="371" type="line"/>
      <point x="140" y="361"/>
      <point x="134" y="352"/>
      <point x="121" y="365" type="curve"/>
      <point x="172" y="427"/>
      <point x="247" y="471"/>
      <point x="355" y="471" type="curve" smooth="yes"/>
      <point x="514" y="471"/>
      <point x="604" y="361"/>
      <point x="604" y="241" type="curve" smooth="yes"/>
      <point x="604" y="98"/>
      <point x="500" y="-10"/>
    </contour>
  </outline>
</glyph>
<glyph name="florin" format="2">
  <advance width="650"/>
  <outline>
    <contour>
      <point x="184" y="508" type="line"/>
      <point x="178" y="477" type="line"/>
      <point x="592" y="477" type="line"/>
      <point x="598" y="508" type="line"/>
    </contour>
    <contour>
      <point x="291" y="56" type="curve" smooth="yes"/>
      <point x="375" y="568" type="line" smooth="yes"/>
      <point x="394" y="681"/>
      <point x="452" y="721"/>
      <point x="543" y="721" type="curve" smooth="yes"/>
      <point x="582" y="721"/>
      <point x="617" y="711"/>
      <point x="656" y="699" type="curve"/>
      <point x="662" y="734" type="line"/>
      <point x="631" y="746"/>
      <point x="583" y="753"/>
      <point x="542" y="753" type="curve" smooth="yes"/>
      <point x="426" y="753"/>
      <point x="355" y="696"/>
      <point x="335" y="574" type="curve" smooth="yes"/>
      <point x="253" y="56" type="line" smooth="yes"/>
      <point x="222" y="-142"/>
      <point x="144" y="-204"/>
      <point x="51" y="-204" type="curve" smooth="yes"/>
      <point x="1" y="-204"/>
      <point x="-40" y="-191"/>
      <point x="-66" y="-182" type="curve"/>
      <point x="-72" y="-216" type="line"/>
      <point x="-48" y="-226"/>
      <point x="-8" y="-236"/>
      <point x="51" y="-236" type="curve" smooth="yes"/>
      <point x="173" y="-236"/>
      <point x="255" y="-155"/>
    </contour>
  </outline>
</glyph>
<glyph name="four.old" format="2">
  <advance width="650"/>
  <outline>
    <contour>
      <point x="43" y="51" type="line"/>
      <point x="624" y="51" type="line"/>
      <point x="624" y="88" type="line"/>
      <point x="64" y="88" type="line"/>
      <point x="68" y="64" type="line"/>
      <point x="450" y="542" type="line"/>
      <point x="467" y="548" type="line"/>
      <point x="412" y="548" type="line"/>
      <point x="43" y="91" type="line"/>
    </contour>
    <contour>
      <point x="473" y="-138" type="line"/>
      <point x="473" y="548" type="line"/>
      <point x="433" y="548" type="line"/>
      <point x="433" y="528" type="line"/>
      <point x="433" y="-138" type="line"/>
    </contour>
  </outline>
</glyph>
<glyph name="heart" format="2">
  <advance width="1046"/>
  <outline>
    <contour>
      <point x="510" y="-10" type="line"/>
      <point x="235" y="273" type="line" smooth="yes"/>
      <point x="136" y="375"/>
      <point x="81" y="437"/>
      <point x="81" y="535" type="curve" smooth="yes"/>
      <point x="81" y="632"/>
      <point x="158" y="710"/>
      <point x="292" y="710" type="curve" smooth="yes"/>
      <point x="469" y="710"/>
      <point x="567" y="567"/>
      <point x="567" y="363" type="curve"/>
      <point x="480" y="363" type="line"/>
      <point x="480" y="567"/>
      <point x="577" y="710"/>
      <point x="753" y="710" type="curve" smooth="yes"/>
      <point x="888" y="710"/>
      <point x="965" y="632"/>
      <point x="965" y="535" type="curve" smooth="yes"/>
      <point x="965" y="437"/>
      <point x="910" y="375"/>
      <point x="812" y="273" type="curve" smooth="yes"/>
      <point x="537" y="-10" type="line"/>
    </contour>
  </outline>
</glyph>
<glyph name="whitedownpointingtriangle" format="2">
  <advance width="749"/>
  <outline>
    <contour>
      <point x="685" y="464" type="line"/>
      <point x="64" y="464" type="line"/>
      <point x="374" y="91" type="line"/>
    </contour>
    <contour>
      <point x="586" y="414" type="line"/>
      <point x="578" y="430" type="line"/>
      <point x="368" y="175" type="line"/>
      <point x="381" y="175" type="line"/>
      <point x="170" y="430" type="line"/>
      <point x="163" y="414" type="line"/>
    </contour>
  </outline>
</glyph>
<glyph name="whitesquare" format="2">
  <advance width="683"/>
  <outline>
    <contour>
      <point x="99" y="104" type="line"/>
      <point x="584" y="104" type="line"/>
      <point x="584" y="522" type="line"/>
      <point x="99" y="522" type="line"/>
    </contour>
    <contour>
      <point x="163" y="159" type="line"/>
      <point x="163" y="467" type="line"/>
      <point x="520" y="467" type="line"/>
      <point x="520" y="159" type="line"/>
    </contour>
  </outline>
</glyph>
